<svg width="656" height="257" viewBox="0 0 656 257" fill="none" xmlns="http://www.w3.org/2000/svg">
<g clip-path="url(#clip0_114_554)">
<path d="M3.5099 161.38C2.4499 156.15 2.7699 150.85 2.6799 145.58C2.2799 137.08 3.7199 128.5 1.5499 120.07C0.409899 106.12 -0.230101 92.16 0.079899 78.18C0.219899 71.95 3.6199 67.2 8.1399 63.21C18.6199 53.95 30.1099 45.96 41.0899 37.34C55.4499 26.06 69.7599 14.73 84.2199 3.57003C86.7299 1.64003 89.4799 -2.38997 93.1199 1.95003C95.6999 5.03003 94.1299 11.69 90.5799 14.09C82.3099 19.66 73.9499 25.1 65.7699 30.79C53.0399 39.64 40.3999 48.61 27.7899 57.63C25.5599 59.22 23.4299 61.09 21.6799 63.19C18.8699 66.57 19.7299 70.72 23.4699 73.03C26.9499 75.18 30.6999 75.36 34.5799 74.31C77.0799 62.72 119.57 51.12 162.07 39.52C169.71 37.44 170.71 38.21 170.92 45.96C172.36 98.51 173.84 151.06 175.27 203.61C175.51 212.51 175.41 212.52 166.94 214.75C161.43 216.2 161.47 216.17 165 220.71C166.6 222.76 168.28 224.84 169.4 227.15C171.73 231.99 170.43 237.22 165.85 240.7C159.74 245.34 153.5 249.83 147.09 254.04C141.38 257.79 134.61 256.17 131.15 250.26C127.66 244.31 124.39 238.2 121.46 231.96C119.88 228.6 118.36 227.62 114.52 228.7C90.2799 235.47 65.9599 241.96 41.6499 248.49C31.1199 251.32 21.6299 249.1 13.0799 242.39C10.2399 240.16 8.6199 237.34 8.2499 233.84C6.3399 215.66 4.9899 197.44 4.4699 179.16C4.1699 173.24 5.5899 167.22 3.5299 161.39L3.5099 161.38ZM82.6499 127.47C79.2399 127.9 79.9599 130.19 80.0999 132.08C81.9699 157.04 83.8499 182 85.7699 206.96C86.1099 211.38 87.5699 212.04 91.2799 209.42C96.9199 205.43 102.65 201.54 108 197.18C111.26 194.52 112.47 195.29 114.21 198.7C121.89 213.73 129.9 228.59 137.63 243.59C139.44 247.1 141.28 247.59 144.4 245.19C148.9 241.73 153.48 238.33 158.26 235.28C161.72 233.07 162 231.23 159.39 228.01C148.65 214.79 138.2 201.35 127.47 188.13C125.38 185.55 125.55 184.3 128.26 182.48C133.6 178.89 138.74 174.99 143.9 171.13C148.01 168.05 147.96 166.95 143.5 164.22C124.24 152.44 104.96 140.71 85.6699 128.99C84.6399 128.37 83.5199 127.9 82.6599 127.48L82.6499 127.47Z" fill="#0253A3"/>
<path d="M324.27 171.61C349.95 171.61 375.63 171.61 401.31 171.61C410.3 171.61 413.58 174.8 413.65 183.76C413.69 188.53 413.75 193.29 413.62 198.06C413.45 204.41 410.07 207.93 403.72 208.55C402.5 208.67 401.26 208.61 400.03 208.61C349.59 208.61 299.16 208.63 248.72 208.63C237.54 208.63 234.4 205.52 234.39 194.47C234.39 190.78 234.35 187.09 234.42 183.4C234.56 175.21 238.12 171.63 246.32 171.62C272.31 171.58 298.29 171.61 324.28 171.61H324.27ZM252.64 191.76C253.21 194.54 250.89 199.37 253.47 201.47C256.09 203.6 260.84 202.54 264.56 201.68C270.84 200.24 274.22 194.92 273.21 188.58C272.08 181.49 266.34 178.11 255.42 179.48C249.58 180.21 253.94 185.64 252.68 188.65C252.41 189.3 252.64 190.16 252.64 191.75V191.76ZM308.89 194.16C306.7 197.93 303.93 198.4 301.02 197.39C297.81 196.28 296.13 193.73 296.47 190.23C297.02 184.59 302.01 182.07 307.3 185.06C309.48 186.29 310.91 185.89 311.99 184.25C313.42 182.07 311.01 181.46 309.85 180.66C307.18 178.81 304.09 178.8 300.98 179.25C295.49 180.05 291.71 184.2 291.37 189.88C291.01 195.88 294.63 200.83 300.34 202.11C306.15 203.42 311.6 200.95 313.81 196.02C316.19 190.69 315.32 189.36 309.48 189.4C308.1 189.41 306.72 189.44 305.33 189.42C304.09 189.4 303.28 189.75 303.26 191.2C303.24 192.53 303.33 193.7 305.02 193.85C306.07 193.95 307.12 194.02 308.89 194.16ZM373.47 199.76C371.32 193.81 369.11 186.94 366.3 180.34C365.25 177.88 360.14 179.12 359.06 181.99C356.96 187.59 354.96 193.23 353 198.89C352.64 199.93 351.66 201.46 353.44 201.98C354.79 202.37 356.33 202.57 357.54 200.95C360.43 197.05 365.42 197.01 368.34 200.88C369.54 202.47 370.97 202.14 372.45 202.11C373.37 202.09 373.82 201.58 373.46 199.76H373.47ZM341.65 179.31V179.29C339.66 179.29 337.66 179.25 335.67 179.3C334.08 179.35 332.24 178.84 332.21 181.63C332.18 184.43 334.01 184.07 335.6 183.92C338.26 183.67 339.11 184.77 339 187.34C338.84 191.01 338.96 194.7 338.97 198.38C338.97 200.21 338.63 202.11 341.54 202.21C344.5 202.31 344.18 200.44 344.17 198.59C344.17 195.37 344.36 192.14 344.12 188.94C343.86 185.51 344.37 183.2 348.61 183.9C350.05 184.14 350.87 183.53 350.88 181.86C350.88 180.16 350.37 179.26 348.54 179.3C346.24 179.35 343.94 179.31 341.64 179.31H341.65ZM379.98 190.74C379.98 190.74 380 190.74 380.02 190.74C380.02 193.64 380.02 196.55 380.02 199.45C380.02 200.66 379.87 202.1 381.66 202.11C385.94 202.14 390.22 202.14 394.49 201.97C395.78 201.92 396.57 201.02 396.62 199.48C396.68 197.49 395.22 197.76 394.13 197.68C392 197.52 389.85 197.44 387.72 197.53C384.5 197.66 383.82 195.91 384.42 193.25C385.26 189.49 384.49 185.69 384.73 181.92C384.83 180.3 384.02 179.27 382.31 179.31C380.61 179.35 379.94 180.36 379.96 182.01C380 184.91 379.97 187.82 379.97 190.72L379.98 190.74ZM326.42 190.92H326.45C326.45 187.85 326.4 184.78 326.47 181.72C326.51 179.95 325.83 179.28 324.04 179.29C322.23 179.29 321.16 179.64 321.19 181.79C321.27 187.77 321.24 193.75 321.2 199.74C321.2 201.44 321.8 202.23 323.62 202.23C325.46 202.23 326.52 201.79 326.44 199.68C326.34 196.77 326.41 193.85 326.41 190.94L326.42 190.92ZM279.69 190.55C279.69 190.55 279.66 190.55 279.64 190.55C279.64 193.45 279.71 196.36 279.62 199.26C279.56 201.09 280.16 202.18 282.11 202.31C284.37 202.46 285.04 201.24 285.01 199.22C284.97 195.86 285.12 192.49 284.97 189.13C284.86 186.59 285.43 184.05 284.34 181.48C283.57 179.67 282.51 179.14 280.86 179.36C278.9 179.62 279.78 181.26 279.74 182.28C279.62 185.03 279.7 187.78 279.7 190.53L279.69 190.55Z" fill="#0253A3"/>
<path d="M377.61 137.9C377.61 134.06 377.51 130.22 377.65 126.38C377.71 124.82 376.67 122.31 378.61 121.87C381.11 121.31 384.54 120.19 386.31 122.58C387.63 124.37 388.04 123.41 388.99 122.89C394.08 120.12 399.04 120.26 403.54 123.99C405.1 125.29 405.81 124.51 407.01 123.73C411.86 120.59 416.98 119.92 422.25 122.6C427.52 125.27 428.56 130.09 428.54 135.41C428.53 140.63 428.31 145.87 428.63 151.07C428.86 154.83 426.69 154.47 424.31 154.43C421.86 154.39 419.37 154.97 419.64 150.91C419.96 146.02 419.76 141.09 419.66 136.17C419.58 132.47 418.51 129.39 413.99 129.33C410.18 129.27 407.83 131.76 407.69 136.19C407.55 140.79 407.34 145.42 407.69 150C407.98 153.82 406.47 154.5 403.02 154.54C399.64 154.57 398.36 153.82 398.6 150.23C398.92 145.49 398.68 140.71 398.67 135.95C398.66 132.33 397.53 129.55 393.34 129.33C389.48 129.13 386.8 131.65 386.67 135.88C386.51 141.1 386.44 146.33 386.69 151.54C386.84 154.76 384.94 154.73 382.95 154.34C381 153.96 377.56 156.24 377.59 151.7C377.62 147.09 377.59 142.49 377.59 137.88L377.61 137.9Z" fill="white"/>
<path d="M142.44 18.92C142.29 23.41 141.5 26.67 136.2 28.67C103.49 40.98 70.9802 53.81 38.3902 66.47C37.3902 66.86 36.3802 67.24 35.3502 67.53C34.5702 67.74 33.7902 67.6 33.4402 66.74C33.1102 65.92 33.4002 65.24 34.1702 64.82C34.9802 64.37 35.7902 63.94 36.6202 63.54C69.0402 47.85 101.45 32.15 133.88 16.47C139.4 13.8 142.41 14.72 142.43 18.93L142.44 18.92Z" fill="#0253A3"/>
<path d="M374.08 138.37C374.08 141.75 374.08 145.13 374.08 148.51C374.08 154.72 373.02 155.9 366.95 154.22C364.24 153.47 362.12 153.84 359.66 154.37C352.04 156.03 345.21 153.15 341.38 146.86C337.79 140.96 338.35 133.03 342.75 127.44C347.02 122.01 354.56 119.57 361.39 122.41C364.7 123.79 366.58 120.95 369.51 121.33C372.73 121.74 374.63 121.87 374.2 125.93C373.76 130.03 374.1 134.22 374.1 138.36L374.08 138.37ZM356.23 146.98C361.04 147.07 365.15 143.22 365.31 138.48C365.47 133.87 361.4 129.57 356.72 129.42C351.91 129.26 347.9 133.1 347.78 137.99C347.66 142.94 351.37 146.89 356.23 146.98Z" fill="white"/>
<path d="M466.73 138.4C466.73 141.93 466.73 145.46 466.73 148.99C466.73 154.12 462.74 156.77 458.33 153.92C456.51 152.74 455.78 153.34 454.52 153.8C447.02 156.54 439.14 154.18 434.49 147.77C430.47 142.22 430.67 133.67 434.95 127.96C439.57 121.81 447.15 119.75 454.71 122.56C455.91 123.01 456.66 124.13 458.31 122.18C459.79 120.43 463.31 121.2 465.69 121.9C467.61 122.47 466.62 124.86 466.67 126.43C466.8 130.42 466.71 134.41 466.72 138.4H466.73ZM448.75 129.43C444.03 129.49 440.19 133.6 440.29 138.49C440.39 143.33 444.42 147.12 449.3 146.95C454.25 146.78 457.96 142.84 457.8 137.93C457.64 133.1 453.67 129.37 448.75 129.43Z" fill="white"/>
<path d="M276.51 140.77C273.44 140.77 270.37 140.76 267.3 140.77C266.4 140.77 265.34 140.61 264.86 141.58C264.3 142.71 265.05 143.58 265.74 144.45C268.55 148 274.9 149.09 278.56 145.68C281.82 142.64 283.69 144.88 286.08 146.21C287.75 147.14 287.5 148.09 286.36 149.48C282.14 154.64 272.73 156.78 265.6 154.04C258.74 151.4 254.73 144.99 255.15 137.32C255.59 129.23 260.38 123.35 268.08 121.41C275.35 119.58 282.93 122.4 286.65 128.35C287.14 129.13 287.55 129.96 287.9 130.81C291.12 138.64 289.74 140.8 281.57 140.77C279.88 140.77 278.2 140.77 276.51 140.77ZM271.88 134.17V134.19C272.64 134.19 273.45 134.35 274.16 134.16C275.94 133.69 279.06 135.44 279.32 133.11C279.64 130.27 276.67 129.02 273.98 128.52C271.65 128.08 269.39 128.35 267.43 129.78C266.22 130.66 264.55 131.68 265.07 133.32C265.57 134.94 267.44 133.95 268.69 134.14C269.73 134.3 270.82 134.17 271.89 134.17H271.88Z" fill="white"/>
<path d="M610.84 140.83C607.62 140.83 604.4 140.88 601.18 140.81C598.16 140.75 598.2 142.13 599.47 144.18C601.69 147.76 608.46 149.15 612.21 145.93C615.44 143.16 617.51 144.47 620.17 146.13C621.84 147.17 621.59 148.11 620.58 149.45C616.63 154.69 606.56 156.84 599.39 153.9C592.06 150.89 588.2 143.88 589.38 135.7C590.52 127.74 596.19 122 603.72 121.18C615.25 119.91 623.25 126.8 623.19 137.74C623.18 140.17 622.44 141 620.05 140.88C616.99 140.73 613.92 140.84 610.85 140.84C610.85 140.84 610.85 140.83 610.85 140.82L610.84 140.83ZM606.28 134.19C607.8 134.19 609.32 134.25 610.84 134.17C611.8 134.12 613.14 134.68 613.53 133.24C613.85 132.06 612.94 131.23 612.16 130.54C609.38 128.07 606.15 127.76 602.81 129.07C600.96 129.79 598.77 131.09 599.19 133.18C599.6 135.21 602.04 133.89 603.55 134.17C604.43 134.33 605.37 134.2 606.28 134.2V134.19Z" fill="white"/>
<path d="M534.58 121.04C544.43 121.04 552.25 128.43 552.29 137.79C552.34 147.77 544.59 155.27 534.29 155.24C524.53 155.21 516.95 147.77 516.96 138.23C516.96 128.37 524.47 121.05 534.58 121.04ZM534.21 147.08C539.42 147.15 543.37 143.35 543.39 138.24C543.41 133.16 539.75 129.3 534.88 129.24C529.66 129.18 526.01 132.57 525.86 137.62C525.69 143.23 529.03 147.01 534.21 147.08Z" fill="white"/>
<path d="M649.56 132.14C647.41 132.06 645.53 132.65 644.17 129.91C642.82 127.18 639.68 127.9 637.11 128.62C636.16 128.89 635.59 129.74 635.56 130.72C635.52 132.21 636.69 132.97 637.84 133.29C640.8 134.09 643.83 134.61 646.81 135.33C652.64 136.74 654.92 139.04 655.14 143.62C655.38 148.84 652.79 152.55 647.3 154.08C640.65 155.93 634.13 155.83 628.68 150.86C626.94 149.27 625.15 147.14 626.41 144.49C627 143.25 634.19 144.28 635.14 145.7C637.23 148.78 640.05 149.02 643.26 148.11C644.58 147.74 645.44 146.85 645.44 145.49C645.44 144.02 644.4 143.44 643.05 143.18C640.19 142.63 637.32 142.06 634.49 141.38C629.18 140.11 626.59 137.31 626.35 132.75C626.11 128.09 628.65 124.33 633.32 122.45C640.31 119.63 648.75 121.51 652.16 126.71C653.08 128.12 654.24 129.84 653.55 131.41C652.82 133.06 650.82 131.85 649.55 132.14H649.56Z" fill="white"/>
<path d="M555.15 137.99C555.15 134 555.06 130.01 555.2 126.03C555.25 124.52 554.14 122.05 556.45 121.75C558.81 121.44 562.03 120.14 563.62 122.6C564.78 124.4 565.16 123.61 566.25 123.06C576.85 117.78 585.9 123.23 586.06 135C586.13 140.52 585.91 146.05 586.12 151.57C586.29 155.76 583.35 154.24 581.42 154.39C579.41 154.54 577.08 155.19 577.27 151.51C577.53 146.46 577.32 141.39 577.22 136.33C577.14 132.39 575.84 129.35 571.19 129.3C567 129.26 564.24 131.91 564.04 136.58C563.83 141.48 563.77 146.41 564.04 151.3C564.26 155.22 561.73 154.44 559.55 154.42C557.42 154.4 554.8 155.33 555.06 151.34C555.35 146.91 555.13 142.45 555.13 138C555.13 138 555.14 138 555.15 138V137.99Z" fill="white"/>
<path d="M417.02 71.02C417.02 77.47 417.03 83.91 417.01 90.36C417.01 91.39 417.24 92.69 415.78 92.97C414.45 93.23 412.17 93.68 411.9 92.72C410.65 88.27 408.49 91.32 406.93 92.02C400.31 94.97 392.21 93.5 387.47 88.3C382.91 83.29 381.92 74.97 385.19 68.95C389.51 60.97 398.71 57.97 407.36 62.12C410.62 63.68 411.7 63.48 411.34 59.68C411.12 57.4 411.35 55.08 411.25 52.78C411.15 50.57 411.23 49.02 414.3 49.09C417.14 49.16 417.09 50.64 417.07 52.61C417.03 58.75 417.05 64.89 417.05 71.03H417.02V71.02ZM411.45 77.15C411.45 70.44 406.49 65.56 399.74 65.65C393.51 65.73 388.86 70.57 388.89 76.94C388.92 83.51 393.74 88.29 400.26 88.2C406.63 88.12 411.44 83.36 411.44 77.15H411.45Z" fill="white"/>
<path d="M279.74 70.8001C279.74 64.8201 279.79 58.8301 279.71 52.8501C279.68 50.6501 279.71 49.0701 282.73 49.0601C285.98 49.0601 285.57 51.0401 285.57 53.0301C285.57 53.3401 285.57 53.6401 285.57 53.9501C285.62 56.8501 284.54 60.7701 286 62.4101C288.07 64.7201 290.78 60.9301 293.49 60.4401C300.24 59.2101 307.66 62.2701 311.25 68.3501C314.93 74.5801 314.16 82.7001 309.4 88.0501C304.72 93.3101 296.88 95.0101 290.47 92.3001C288.58 91.5001 286.68 88.5001 284.57 92.7601C283.61 94.7001 279.81 92.7201 279.79 90.1101C279.73 83.6701 279.77 77.2301 279.77 70.7801H279.74V70.8001ZM296.65 88.2001C302.96 88.2601 307.87 83.5501 308 77.3001C308.13 70.7901 303.36 65.7401 296.96 65.6201C290.54 65.5001 285.45 70.4001 285.37 76.7901C285.29 83.2301 290.14 88.1401 296.66 88.2001H296.65Z" fill="white"/>
<path d="M486.17 121.05C492.06 120.91 496.56 122.52 500.04 126.45C501.01 127.54 503.36 129.04 500.84 130.39C498.84 131.46 497.14 135.44 493.97 132.1C490.78 128.73 486.92 128.37 483.03 130.24C479.44 131.97 478.52 135.46 478.8 139.21C479.05 142.51 480.56 145.2 483.71 146.41C487.01 147.68 490.29 147.62 493.15 145.01C495.33 143.02 499.99 143.76 501.47 146.32C502.41 147.94 500.94 148.8 500.08 149.78C495.1 155.47 485.63 156.98 478.52 153.24C471.77 149.69 468.34 141.84 470.14 134.06C471.96 126.16 478.47 121.12 486.18 121.08L486.17 121.05Z" fill="white"/>
<path d="M309.41 121.06C314.29 120.93 318.48 122.68 321.7 126.24C322.55 127.18 325.88 128.66 322.85 130.36C320.86 131.48 319.04 135.76 315.69 131.92C312.9 128.72 309.13 128.45 305.58 129.91C302 131.38 300.53 134.65 300.71 138.55C300.88 142 302.16 144.92 305.47 146.31C308.93 147.76 312.32 147.55 315.29 144.85C317.37 142.96 321.54 143.52 323.23 146.15C324.8 148.6 322.17 149.64 320.91 150.85C315.39 156.13 305.93 156.74 299.15 152.45C292.95 148.52 290.23 140.69 292.4 133.03C294.54 125.48 300.96 120.97 309.41 121.07V121.06Z" fill="white"/>
<path d="M439.77 78.71C436.39 78.71 433.01 78.87 429.65 78.67C426.42 78.49 426.43 79.95 427.37 82.28C430.16 89.15 440.46 90.84 446.47 85.22C447.88 83.9 448.79 83.11 450.68 84.26C452.5 85.37 452.48 86.31 451.24 87.88C447 93.25 436.91 95.36 430.1 92.19C422.93 88.86 419.02 80.35 421.04 72.49C422.97 64.96 429.65 60.06 437.86 60.15C446.19 60.25 452.21 65.21 453.76 73.26C454.66 77.92 454.06 78.68 449.44 78.7C446.22 78.71 443 78.7 439.77 78.7V78.71ZM437.13 74.11V74.14C439.74 74.14 442.36 74 444.96 74.18C447.93 74.38 448.02 73.03 447.04 70.89C445.25 66.95 441.9 65.25 437.84 65.03C433.33 64.79 429.86 66.78 427.58 70.76C426.12 73.32 426.76 74.34 429.75 74.14C432.2 73.98 434.66 74.11 437.12 74.11H437.13Z" fill="white"/>
<path d="M333.7 76.66C333.64 67.36 340.78 60.31 350.41 60.15C360.06 60 367.34 67.19 367.35 76.89C367.36 86.56 360.11 93.73 350.39 93.67C340.71 93.61 333.76 86.52 333.7 76.65V76.66ZM339.38 77.03C339.36 83.73 343.92 88.36 350.55 88.37C356.9 88.37 361.78 83.43 361.8 76.98C361.82 70.33 357.2 65.49 350.77 65.42C344.09 65.34 339.41 70.11 339.38 77.03Z" fill="white"/>
<path d="M237.27 70.83C237.27 64.7 237.33 58.56 237.24 52.43C237.2 50.23 237.58 49.03 240.21 49.06C242.7 49.09 243.71 49.67 243.67 52.4C243.52 62.67 243.74 72.95 243.54 83.22C243.48 86.45 244.42 87.47 247.64 87.3C252.69 87.04 257.76 87.33 262.82 87.19C264.97 87.13 265.79 87.69 265.81 89.96C265.83 92.27 265.25 93.25 262.74 93.2C255.38 93.06 248.02 93.08 240.66 93.18C238.08 93.22 237.21 92.32 237.28 89.69C237.46 83.41 237.34 77.12 237.34 70.83H237.27Z" fill="white"/>
<path d="M335.94 132.66C335.94 138.94 335.78 145.23 336.01 151.51C336.13 154.67 334.35 154.72 332.28 154.38C330.26 154.05 326.9 156.05 326.9 151.66C326.9 138.79 326.82 125.91 326.95 113.04C326.99 108.71 330.56 111.03 332.54 110.61C334.48 110.19 336.09 110.54 336.02 113.35C335.86 119.78 335.97 126.22 335.97 132.66H335.94Z" fill="white"/>
<path d="M236.25 137.73C236.25 133.58 236.17 129.43 236.29 125.28C236.33 123.95 235.4 121.68 237.82 121.69C240.26 121.69 243.86 120.07 244.92 122.8C246.05 125.73 246.75 124.1 247.91 123.45C248.04 123.38 248.14 123.25 248.27 123.16C250.09 121.96 252.5 120.39 254.14 121.62C255.73 122.81 254.54 125.68 254.77 127.8C255.1 130.8 252.59 130.13 251.03 130.64C247.11 131.93 245.52 134.85 245.41 138.71C245.29 143.01 245.18 147.33 245.37 151.62C245.52 154.89 243.44 154.7 241.48 154.39C239.49 154.08 236.12 156.08 236.24 151.56C236.36 146.95 236.27 142.34 236.26 137.72L236.25 137.73Z" fill="white"/>
<path d="M504.92 137.72C504.92 133.28 505.07 128.83 504.87 124.4C504.7 120.74 507.19 121.4 509.18 121.55C511.09 121.7 514.07 120.06 514.02 124.24C513.91 133.43 513.95 142.62 514 151.81C514.02 156 510.94 154.21 509.05 154.37C507.09 154.54 504.64 155.2 504.86 151.51C505.13 146.93 504.92 142.32 504.92 137.73V137.72Z" fill="white"/>
<path d="M322.72 65.68C325.26 62.9 327.02 61.43 329.28 60.83C330.59 60.48 332.51 59.18 332.95 61.6C333.25 63.26 334.11 65.39 330.98 66.3C324.77 68.12 322.99 70.89 322.94 77.38C322.9 81.68 322.84 85.99 322.98 90.29C323.05 92.51 322.25 93.19 320.06 93.19C317.78 93.19 317.16 92.28 317.18 90.16C317.28 81.71 317.21 73.26 317.33 64.81C317.35 63.11 316.24 60.7 319.73 60.49C323.02 60.3 323.17 62.16 322.72 65.66V65.68Z" fill="white"/>
<path d="M275.4 76.41C275.4 81.01 275.31 85.62 275.44 90.22C275.5 92.43 274.69 93.23 272.52 93.19C270.37 93.16 269.55 92.29 269.58 90.13C269.68 81.23 269.69 72.33 269.66 63.44C269.66 61.27 270.41 60.54 272.64 60.56C274.93 60.58 275.51 61.36 275.43 63.53C275.27 67.82 275.38 72.12 275.38 76.41C275.38 76.41 275.39 76.41 275.4 76.41Z" fill="white"/>
<path d="M509.49 110.63C513.11 109.76 513.95 111.31 514.13 114.93C514.35 119.45 511.81 118.73 509.01 118.98C505.3 119.32 504.89 117.67 504.78 114.48C504.64 110.64 506.31 110.01 509.49 110.63Z" fill="white"/>
<path d="M275.31 52.13C275.85 54.51 274.53 54.86 272.52 54.88C270.47 54.9 269.62 54.38 269.56 52.09C269.5 49.56 270.47 49.06 272.73 49.08C275.03 49.09 275.7 50.04 275.32 52.13H275.31Z" fill="white"/>
<path d="M1.54004 120.06C3.72004 128.49 2.28004 137.07 2.67004 145.57C1.50004 137.1 1.58004 128.58 1.54004 120.06Z" fill="#0253A3"/>
<path d="M3.50977 161.38C5.56977 167.21 4.14977 173.23 4.44977 179.15C3.23977 173.27 3.65977 167.31 3.50977 161.38Z" fill="#0253A3"/>
<path d="M82.6496 127.47C83.5096 127.9 84.6296 128.36 85.6596 128.98C104.95 140.71 124.24 152.43 143.49 164.21C147.96 166.94 148 168.04 143.89 171.12C138.74 174.98 133.59 178.88 128.25 182.47C125.54 184.29 125.37 185.54 127.46 188.12C138.19 201.34 148.65 214.79 159.38 228C161.99 231.22 161.71 233.06 158.25 235.27C153.47 238.32 148.89 241.72 144.39 245.18C141.27 247.57 139.43 247.09 137.62 243.58C129.89 228.58 121.88 213.71 114.2 198.69C112.46 195.29 111.25 194.51 107.99 197.17C102.65 201.53 96.9196 205.42 91.2696 209.41C87.5596 212.03 86.0996 211.38 85.7596 206.95C83.8396 181.99 81.9596 157.03 80.0896 132.07C79.9496 130.17 79.2296 127.89 82.6396 127.46L82.6496 127.47Z" fill="white"/>
<path d="M252.64 191.76C252.64 190.17 252.41 189.31 252.68 188.66C253.94 185.64 249.58 180.22 255.42 179.49C266.34 178.12 272.08 181.49 273.21 188.59C274.22 194.92 270.84 200.24 264.56 201.69C260.84 202.55 256.09 203.61 253.47 201.48C250.89 199.38 253.21 194.55 252.64 191.77V191.76ZM260.38 183.98C258.28 183.44 257.51 184.65 257.63 187.03C257.75 189.33 257.79 191.65 257.58 193.93C257.29 197.11 258.65 197.97 261.61 197.53C266.08 196.87 268.37 194.38 268.27 189.94C268.2 186.61 265 184.05 260.38 183.97V183.98Z" fill="white"/>
<path d="M308.89 194.16C307.12 194.02 306.07 193.94 305.02 193.85C303.34 193.7 303.25 192.53 303.26 191.2C303.28 189.75 304.09 189.4 305.33 189.42C306.71 189.44 308.09 189.41 309.48 189.4C315.31 189.36 316.19 190.69 313.81 196.02C311.6 200.95 306.15 203.42 300.34 202.11C294.64 200.83 291.01 195.88 291.37 189.88C291.71 184.2 295.49 180.05 300.98 179.25C304.1 178.8 307.18 178.8 309.85 180.66C311.01 181.46 313.42 182.07 311.99 184.25C310.91 185.89 309.48 186.3 307.3 185.06C302.01 182.07 297.02 184.58 296.47 190.23C296.13 193.73 297.81 196.28 301.02 197.39C303.93 198.4 306.7 197.93 308.89 194.16Z" fill="white"/>
<path d="M373.47 199.76C373.83 201.57 373.39 202.09 372.46 202.11C370.98 202.14 369.54 202.47 368.35 200.88C365.42 197.01 360.44 197.05 357.55 200.95C356.34 202.58 354.8 202.38 353.45 201.98C351.67 201.46 352.65 199.92 353.01 198.89C354.97 193.24 356.96 187.59 359.07 181.99C360.15 179.11 365.26 177.88 366.31 180.34C369.13 186.94 371.33 193.81 373.48 199.76H373.47ZM362.92 185.03C361.95 187.59 361.27 189.07 360.85 190.62C360.61 191.52 359.7 192.74 360.99 193.45C362.18 194.1 363.71 194.13 364.86 193.47C365.99 192.82 365.33 191.62 364.96 190.64C364.38 189.1 363.83 187.55 362.91 185.04L362.92 185.03Z" fill="white"/>
<path d="M341.65 179.31C343.95 179.31 346.25 179.35 348.55 179.3C350.37 179.26 350.9 180.16 350.89 181.86C350.89 183.53 350.06 184.14 348.62 183.9C344.38 183.2 343.87 185.52 344.13 188.94C344.37 192.14 344.17 195.38 344.18 198.59C344.18 200.44 344.51 202.31 341.55 202.21C338.64 202.11 338.99 200.21 338.98 198.38C338.97 194.7 338.85 191.02 339.01 187.34C339.12 184.77 338.27 183.67 335.61 183.92C334.02 184.07 332.2 184.43 332.22 181.63C332.24 178.85 334.08 179.35 335.68 179.3C337.67 179.24 339.67 179.29 341.66 179.29V179.31H341.65Z" fill="white"/>
<path d="M379.98 190.74C379.98 187.84 380.01 184.93 379.97 182.03C379.95 180.37 380.62 179.37 382.32 179.33C384.03 179.29 384.84 180.32 384.74 181.94C384.5 185.71 385.27 189.5 384.43 193.27C383.83 195.93 384.51 197.68 387.73 197.55C389.86 197.47 392.01 197.55 394.14 197.7C395.22 197.78 396.68 197.51 396.63 199.5C396.59 201.03 395.8 201.94 394.5 201.99C390.23 202.15 385.95 202.15 381.67 202.13C379.88 202.12 380.03 200.68 380.03 199.47C380.02 196.57 380.03 193.66 380.03 190.76C380.02 190.76 380.01 190.76 379.99 190.76L379.98 190.74Z" fill="white"/>
<path d="M326.42 190.92C326.42 193.83 326.34 196.75 326.45 199.66C326.53 201.78 325.47 202.21 323.63 202.21C321.81 202.21 321.2 201.42 321.21 199.72C321.24 193.74 321.28 187.75 321.2 181.77C321.17 179.62 322.24 179.28 324.05 179.27C325.84 179.27 326.52 179.94 326.48 181.7C326.41 184.77 326.46 187.84 326.46 190.9H326.43L326.42 190.92Z" fill="white"/>
<path d="M279.69 190.55C279.69 187.8 279.61 185.04 279.73 182.3C279.77 181.27 278.89 179.64 280.85 179.38C282.5 179.16 283.56 179.69 284.33 181.5C285.43 184.07 284.85 186.61 284.96 189.15C285.11 192.51 284.96 195.88 285 199.24C285.03 201.26 284.35 202.49 282.1 202.33C280.16 202.2 279.56 201.11 279.61 199.28C279.7 196.38 279.63 193.47 279.63 190.57C279.65 190.57 279.66 190.57 279.68 190.57L279.69 190.55Z" fill="white"/>
<path d="M260.38 183.98C265 184.05 268.2 186.61 268.27 189.95C268.37 194.39 266.08 196.88 261.61 197.54C258.65 197.98 257.29 197.12 257.58 193.94C257.79 191.66 257.74 189.33 257.63 187.04C257.51 184.66 258.28 183.45 260.38 183.99V183.98Z" fill="#0253A3"/>
<path d="M362.92 185.03C363.84 187.54 364.39 189.09 364.97 190.63C365.34 191.61 366 192.81 364.87 193.46C363.72 194.12 362.19 194.1 361 193.44C359.71 192.73 360.62 191.51 360.86 190.61C361.28 189.06 361.96 187.58 362.93 185.02L362.92 185.03Z" fill="#0253A3"/>
</g>
<defs>
<clipPath id="clip0_114_554">
<rect width="655.16" height="256.05" fill="white"/>
</clipPath>
</defs>
</svg>
